<svg width="700" height="543" viewBox="0 0 700 543" fill="none" xmlns="http://www.w3.org/2000/svg">
<g clip-path="url(#clip0_4419_14294)">
<rect x="-93" width="138" height="531" fill="white"/>
<path d="M-14 628L-14 471L253 485L432.5 433.5L701.5 491V618.5L-14 628Z" fill="white"/>
<path d="M62.7443 482.636C61.7788 482.38 60.8134 482.124 59.8187 481.86L56.6016 430.011C60.3365 430.345 64.0725 430.658 67.8133 430.957C73.6527 431.444 73.6527 431.444 76.0423 432.28C78.5255 432.485 81.0083 432.617 83.5013 432.75C85.7626 433.037 85.7626 433.037 87.9227 434.55C90.3104 434.733 90.3104 434.733 92.9179 434.644C94.2419 434.624 94.2419 434.624 95.5927 434.603C96.6076 434.577 96.6076 434.577 97.643 434.55C97.643 435.299 97.643 436.048 97.643 436.819C101.207 436.819 104.771 436.819 108.443 436.819C108.8 437.568 109.156 438.317 109.523 439.088C112.375 439.088 115.226 439.088 118.164 439.088C118.52 439.837 118.877 440.586 119.244 441.358C122.452 441.607 125.659 441.857 128.964 442.114C128.964 442.863 128.964 443.612 128.964 444.384C132.172 444.633 135.38 444.883 138.685 445.14C139.041 445.889 139.397 446.638 139.765 447.409C141.903 447.409 144.042 447.409 146.245 447.409C146.601 448.158 146.958 448.907 147.325 449.679C150.176 449.928 153.028 450.178 155.965 450.435C155.965 450.934 155.965 451.434 155.965 451.948C156.968 452.135 157.97 452.322 159.003 452.515C167.745 454.277 176.035 456.644 184.27 459.332C189.136 460.843 194.139 462.075 199.167 463.295C199.167 463.794 199.167 464.293 199.167 464.807C201.305 465.057 203.444 465.307 205.647 465.564C205.647 466.063 205.647 466.562 205.647 467.077C206.917 467.03 206.917 467.03 208.212 466.982C211.047 467.077 211.047 467.077 213.207 468.59C214.909 469.187 216.647 469.733 218.405 470.244C219.325 470.52 220.246 470.796 221.194 471.081C225.51 471.901 228.364 471.24 232.29 469.806C233.827 469.138 233.827 469.138 235.395 468.457C236.544 467.96 237.694 467.463 238.879 466.951C240.11 466.41 241.341 465.869 242.571 465.328C243.843 464.774 256.939 472.011 258.211 471.457C266.17 467.983 274.029 464.412 281.799 460.734C290.064 456.825 298.497 453.104 306.96 449.409C308.552 448.71 310.137 448.003 311.716 447.29C312.489 446.943 313.262 446.596 314.059 446.238C315.094 445.769 315.094 445.769 316.151 445.289C317.915 444.61 317.915 444.61 320.075 444.61C320.131 443.955 320.131 443.955 320.189 443.286C321.648 440.717 324.669 439.845 327.973 438.558C332.359 436.817 335.979 435.046 339.516 432.507C340.229 432.507 340.941 432.507 341.676 432.507C341.319 432.008 340.963 431.508 340.596 430.994C340.52 429.577 340.505 428.157 340.528 426.739C340.543 425.601 340.543 425.601 340.558 424.44C340.577 423.566 340.577 423.565 340.596 422.673C346.574 421.089 352.679 420.383 358.957 419.647C359.103 419.214 359.249 418.78 359.399 418.333C360.02 416.667 360.753 415.072 361.589 413.454C361.988 412.666 361.988 412.666 362.395 411.861C363.277 410.57 363.277 410.57 365.437 409.814C367.859 409.761 370.262 409.816 372.685 409.861C375.116 409.814 377.15 409.534 379.477 409.057C379.834 407.559 380.19 406.062 380.557 404.519C384.211 403.666 385.707 403.9 389.4 404.471C390.373 404.619 391.346 404.766 392.349 404.918C393.091 405.035 393.833 405.153 394.598 405.275C394.954 404.027 395.311 402.779 395.678 401.493C396.655 401.519 396.655 401.519 397.652 401.546C398.515 401.56 399.379 401.573 400.268 401.587C401.12 401.605 401.972 401.622 402.85 401.641C405.635 401.479 407.266 400.871 409.718 399.98C411.527 400.202 413.328 400.454 415.118 400.736C416.561 400.491 418.001 400.24 419.439 399.98C420.881 400.225 422.322 400.477 423.759 400.736C424.828 400.487 425.897 400.237 426.999 399.98C427.645 400.12 428.291 400.261 428.957 400.405C431.496 400.904 431.496 400.903 434.559 399.98C437.881 399.204 438.938 399.184 442.12 399.98C442.832 399.98 443.545 399.98 444.28 399.98C444.636 400.729 444.992 401.478 445.36 402.249C451.585 403.014 455.453 402.919 461.56 401.493C462.629 401.493 463.699 401.493 464.8 401.493C465.157 401.992 465.513 402.491 465.88 403.006C467.306 403.006 468.732 403.006 470.201 403.006C470.201 403.505 470.201 404.004 470.201 404.519C471.59 404.501 472.979 404.483 474.411 404.465C531.143 403.977 581.084 415.01 633.276 429.562C634.334 429.856 635.391 430.15 636.48 430.453C638.487 431.012 640.492 431.573 642.495 432.137C643.386 432.386 644.277 432.634 645.195 432.89C645.975 433.109 646.755 433.328 647.559 433.554C649.487 434.102 649.487 434.102 651.647 434.02C651.647 434.519 651.647 435.018 651.647 435.533C652.427 435.634 653.206 435.736 654.01 435.84C657.806 436.401 661.447 437.205 665.148 438.015C667.869 438.601 667.869 438.601 670.818 438.913C671.62 439.046 672.422 439.178 673.248 439.315C673.604 439.814 673.961 440.313 674.328 440.828C676.565 441.472 678.847 442.042 681.142 442.577C681.834 442.739 682.526 442.902 683.239 443.069C684.711 443.412 686.185 443.753 687.659 444.091C689.882 444.601 680.274 437.331 682.491 437.853C687.264 438.966 691.998 440 696.837 440.828L700.004 491.724C633.901 483.703 534.098 460.358 456.999 445.59C455.643 445.327 455.643 445.327 454.26 445.06C452.605 444.739 450.95 444.417 449.297 444.092C445.48 443.32 445.48 443.32 441.548 443.056C441.037 443.697 437.026 444.839 436.5 445.5C432.587 450.377 418.279 449.302 413.99 454.022C413.4 454.679 413.4 454.679 412.799 455.349C410.528 457.819 408.071 459.824 405.08 461.87C404.568 462.588 404.055 463.306 403.527 464.045C401.573 466.783 399.306 468.639 396.44 470.947C395.838 471.54 395.237 472.133 394.617 472.744C393.915 473.352 393.915 473.353 393.2 473.973C392.487 473.973 391.774 473.973 391.039 473.973C390.683 474.722 390.327 475.471 389.959 476.243C388.89 476.243 387.821 476.243 386.719 476.243C386.541 477.038 386.363 477.834 386.179 478.654C385.133 481.347 383.59 482.2 380.172 483.571C379.402 483.839 378.632 484.107 377.839 484.383C375.39 485.578 375.484 486.364 374.839 488.346C373.231 489.415 373.231 489.415 371.261 490.331C370.244 490.811 370.244 490.811 369.207 491.301C367.279 492.128 367.279 492.128 364.714 492.979C362.562 493.609 362.562 493.609 361.878 495.91C355.336 498.936 355.336 498.936 349.998 498.936C349.798 499.513 349.597 500.09 349.39 500.685C347.195 503.559 344.592 503.98 340.278 504.987C339.208 504.987 338.139 504.987 337.038 504.987C336.681 505.736 336.325 506.485 335.957 507.257C333.907 508.007 333.907 508.007 331.232 508.675C326.248 509.976 321.46 511.45 316.656 513.048C306.909 515.98 297.392 517.821 286.951 519.123C285.71 519.284 284.47 519.444 283.192 519.609C280.901 519.906 278.61 520.199 276.317 520.488C274.35 520.74 272.386 521.008 270.427 521.293C218.637 528.23 196.894 523.317 150.565 508.876C149.858 508.655 149.15 508.435 148.422 508.209C136.31 504.439 124.202 500.664 112.19 496.74C105.28 494.502 98.2853 492.44 91.2303 490.437C89.9805 490.083 88.7307 489.728 87.4431 489.362C79.2468 487.052 71.0258 484.793 62.7443 482.636Z" fill="#FFC03B"/>
<path d="M14.7949 7.51558C15.492 5.18129 16.2039 2.86791 16.9226 0.555042C40.2788 0.555042 63.635 0.555042 87.6989 0.555042C85.891 4.43384 85.891 4.43384 84.6041 4.63785C83.4215 4.916 82.5225 5.25161 81.5094 6.49367C81.4289 6.81647 81.3484 7.13927 81.2655 7.47184C80.8981 8.72173 80.6197 8.93542 79.9115 9.46298C79.6964 9.62438 79.4813 9.78578 79.2598 9.95207C78.908 10.1999 78.908 10.1999 78.5491 10.4528C78.298 10.6333 78.0468 10.8138 77.788 10.9998C76.5243 11.8792 75.3266 12.6583 73.9742 12.9272C73.8854 12.4372 73.7966 11.9473 73.7051 11.4425C73.2489 12.256 72.8021 13.0788 72.3596 13.917C72.2233 14.1738 72.087 14.4307 71.9466 14.6953C70.4585 17.6544 69.3936 21.0224 68.3061 24.4951C68.1211 25.0792 67.9359 25.663 67.7505 26.2466C67.3906 27.3799 67.0319 28.5143 66.6739 29.6495C66.092 31.4837 65.4989 33.3045 64.9008 35.1208C64.3126 36.9358 63.7626 38.7888 63.2098 40.6408C62.8614 41.7887 62.5127 42.9363 62.1638 44.0837C61.8716 45.0699 61.5956 46.0667 61.326 47.0743C61.1484 47.0743 60.9708 47.0743 60.7878 47.0743C60.699 47.8909 60.6101 48.7074 60.5187 49.5487C60.341 49.5487 60.1634 49.5487 59.9804 49.5487C59.9471 49.9162 59.9138 50.2836 59.8795 50.6622C59.7235 51.9249 59.513 52.8777 59.1731 54.0027C58.9955 54.0027 58.8179 54.0027 58.6349 54.0027C58.5461 54.9826 58.4573 55.9625 58.3658 56.972C58.1881 56.972 58.0105 56.972 57.8275 56.972C57.7924 57.2599 57.7573 57.5478 57.7211 57.8445C57.5643 58.9117 57.3639 59.8298 57.1085 60.8287C57.0191 61.1792 56.9296 61.5298 56.8375 61.891C56.7424 62.2581 56.6473 62.6252 56.5493 63.0034C56.4037 63.5699 56.4037 63.5699 56.2552 64.1477C55.6599 66.4449 55.0229 68.6725 54.3333 70.8791C53.9703 72.127 53.7076 73.403 53.4576 74.7396C53.2526 75.7777 53.2526 75.7777 52.9551 76.9859C52.2593 79.8465 52.0738 81.6114 52.4453 84.6856C52.6229 84.6856 52.8005 84.6856 52.9835 84.6856C53.3134 83.9284 53.3134 83.9284 53.629 82.9245C53.7562 82.5436 53.8835 82.1627 54.0146 81.7703C54.2202 81.1465 54.2202 81.1465 54.43 80.51C59.4555 65.593 65.5713 51.9417 72.0904 39.1561C72.2484 38.846 72.4063 38.5359 72.569 38.2164C73.0765 37.22 73.5842 36.2239 74.092 35.228C74.2617 34.8949 74.4315 34.5619 74.6065 34.2188C75.9978 31.4902 75.9978 31.4902 76.6084 30.2989C78.2898 27.0185 79.9319 23.7245 81.4631 20.1997C81.8671 19.2777 82.2798 18.3684 82.6993 17.4701C84.1993 14.2577 85.521 10.9453 86.778 7.40225C86.8791 7.12385 86.9802 6.84545 87.0843 6.55861C87.4495 5.49829 87.4495 5.49829 87.7211 4.25294C88.0912 2.79715 88.438 1.71798 89.0445 0.555042C90.2361 -0.138184 91.3769 -0.0233077 92.6165 0.071755C93.1327 0.0822586 93.1327 0.0822588 93.6594 0.0929746C94.5707 0.115948 95.4801 0.160301 96.3908 0.215231C97.3215 0.266044 98.2524 0.288498 99.1834 0.313399C101.007 0.367911 102.83 0.450676 104.653 0.555042C103.837 5.24204 103.837 5.24204 103.233 7.38678C103.118 7.79303 103.004 8.19928 102.886 8.61784C102.764 9.03963 102.643 9.46143 102.517 9.89601C102.323 10.5703 102.323 10.5703 102.125 11.2583C98.5038 23.654 93.8906 34.3903 88.6913 44.6463C88.0958 45.8305 87.5144 47.0279 86.942 48.2497C86.2211 49.7842 85.4568 51.2078 84.6704 52.6282C84.183 53.5404 83.7287 54.4868 83.2754 55.4564C82.637 56.8212 81.9764 58.1002 81.2739 59.3537C80.2047 61.2895 79.2728 63.3833 78.3347 65.5339C77.8182 66.6976 77.2856 67.8066 76.7326 68.9111C75.2255 71.9962 73.8931 75.3384 72.5379 78.6491C72.1159 79.6749 71.6894 80.6936 71.261 81.7105C67.401 90.9259 63.9537 101.024 61.6624 111.904C61.5944 112.221 61.5265 112.538 61.4565 112.865C61.0901 114.721 60.9558 115.974 61.326 117.843C61.7891 119.295 61.7891 119.295 62.3856 120.781C62.4932 121.059 62.6007 121.337 62.7116 121.623C62.9398 122.212 63.1689 122.799 63.399 123.385C63.74 124.256 64.0768 125.132 64.4124 126.011C65.7379 129.469 67.1093 132.852 68.5216 136.192C69.1629 137.716 69.789 139.258 70.4074 140.813C70.7408 141.631 70.7408 141.631 71.1917 142.351C71.5522 143.082 71.5522 143.082 71.5522 144.567C71.9075 144.893 72.2627 145.22 72.6287 145.557C72.6287 146.047 72.6287 146.536 72.6287 147.041C72.8007 147.174 72.9728 147.307 73.1501 147.443C73.7051 148.031 73.7051 148.031 73.9742 149.516C74.2018 149.924 74.4294 150.332 74.6638 150.753C75.3198 151.99 75.3198 151.99 75.3198 153.475C75.5695 153.521 75.5696 153.521 75.8244 153.568C76.0131 153.7 76.2018 153.833 76.3962 153.97C76.5796 154.792 76.7588 155.616 76.9345 156.444C77.1121 156.597 77.2897 156.75 77.4727 156.908C78.2729 157.69 78.2712 158.87 78.5491 160.403C78.7267 160.566 78.9043 160.73 79.0873 160.898C79.265 161.061 79.4426 161.225 79.6256 161.393C79.7088 161.862 79.7921 162.332 79.8779 162.816C80.0921 164.449 80.0921 164.449 80.8534 165.321C81.5094 166.342 81.5093 166.342 81.728 168.198C81.753 168.994 81.753 168.994 81.7785 169.806C82.1337 169.806 82.4889 169.806 82.8549 169.806C83.0325 171.439 83.2101 173.072 83.3931 174.755C83.7484 174.918 84.1036 175.081 84.4696 175.25C84.5362 175.78 84.6028 176.311 84.6714 176.858C84.9176 178.719 84.9176 178.719 85.5797 179.673C86.1736 180.874 86.1545 181.227 86.1515 182.797C86.1293 183.409 86.1071 184.022 86.0842 184.653C86.2563 184.734 86.4284 184.816 86.6057 184.9C87.1607 185.642 87.1607 185.642 87.2732 186.572C87.2916 186.929 87.3099 187.285 87.3289 187.653C87.3622 188.296 87.3955 188.939 87.4298 189.601C87.6074 189.765 87.785 189.928 87.968 190.096C88.0605 191.084 88.0605 191.084 88.1026 192.292C88.1433 194.137 88.1433 194.137 88.7754 195.54C88.7666 196.527 88.7571 197.513 88.7407 198.5C88.7898 199.914 89.1768 200.792 89.5827 201.974C89.5681 202.44 89.5536 202.906 89.5385 203.387C89.5959 205.407 89.9129 205.868 90.6928 207.263C98.0358 221.341 103.255 240.45 103.115 260.223C102.76 281.87 97.1176 301.009 88.7388 315.864C88.2875 316.694 87.8792 317.544 87.4697 318.444C85.7822 322.017 83.9048 325.275 82.0762 328.601C79.6288 333.036 79.6289 333.036 77.326 337.721C76.7967 338.858 76.2365 339.936 75.6756 341.021C73.9536 344.358 72.376 347.828 70.8626 351.489C70.4521 352.476 70.0356 353.453 69.618 354.429C66.1854 362.055 66.1854 425.769 63.748 434.443C63.5318 434.992 63.3129 435.538 63.092 436.082C62.2129 438.653 62.1022 441.244 61.9324 444.218C61.7949 446.461 61.614 448.694 61.4437 450.929C61.1996 454.172 60.9773 457.416 60.7878 460.672C60.9858 460.666 61.1839 460.66 61.388 460.654C61.7819 460.647 61.7819 460.648 62.1838 460.641C62.5725 460.632 62.5725 460.632 62.969 460.623C63.7168 460.67 64.3631 460.883 65.0936 461.166L65.8952 495.087C64.1934 493.929 64.1934 493.929 62.4024 493.956C61.6951 494.795 61.6951 494.795 61.0905 495.936C60.8803 496.303 60.6701 496.671 60.4535 497.049C60.2193 497.478 60.2193 497.478 59.9804 497.915C60.0692 498.405 60.158 498.895 60.2495 499.4C60.4022 502.88 60.4022 502.88 59.8396 504.645C58.9968 506.148 58.1452 506.587 57.037 507.102C55.6291 507.773 54.6033 508.382 53.5218 510.287C53.433 510.614 53.3441 510.941 53.2526 511.277C53.075 511.277 52.8974 511.277 52.7144 511.277C52.6579 511.56 52.6013 511.842 52.5431 512.133C52.0408 513.671 51.4177 514.391 50.612 515.391C50.1931 515.924 50.1931 515.924 49.7658 516.468C48.9469 517.216 48.9469 517.216 48.2079 517.142C47.2658 516.488 46.7026 515.395 46.2557 513.752C44.2923 514.6 42.3753 515.595 40.4589 516.75C34.3567 520.404 34.3567 520.404 31.9928 519.69C31.1717 518.638 30.9521 517.967 30.703 516.18C30.668 515.623 30.6329 515.067 30.5968 514.494C30.4631 512.316 30.4631 512.316 30.2131 510.179C30.1091 509.298 30.1091 509.298 30.3782 507.813C30.2006 507.813 30.0229 507.813 29.8399 507.813C29.7942 507.372 29.7484 506.93 29.7012 506.475C29.636 505.896 29.5707 505.317 29.5036 504.72C29.4411 504.146 29.3787 503.572 29.3143 502.98C29.011 501.257 28.6834 500.577 27.9562 499.4C27.8578 498.744 27.7695 498.083 27.6871 497.42C27.5089 496.815 27.3231 496.218 27.132 495.626C26.6106 493.956 26.6106 493.956 26.6106 492.966C25.9658 493.036 25.3211 493.109 24.6764 493.183C24.4951 493.202 24.3139 493.222 24.1271 493.242C23.1363 493.357 22.1992 493.592 21.2284 493.956C20.1834 494.194 19.1354 494.381 18.0879 494.575C16.9309 494.752 16.9309 494.752 15.8461 495.441C14.802 495.566 14.0233 495.592 13.155 494.451C12.7252 493.109 12.5383 491.997 12.4622 490.453C12.4318 489.867 12.4318 489.867 12.4008 489.27C12.3814 488.852 12.3619 488.434 12.3419 488.003C12.3088 487.344 12.3088 487.344 12.2751 486.672C12.2072 485.307 12.1425 483.94 12.0786 482.574C12.0592 482.168 12.0397 481.762 12.0197 481.344C11.8852 478.533 11.7582 475.722 11.6329 472.91C11.5927 472.015 11.5525 471.121 11.5123 470.226C11.4288 468.365 11.3456 466.504 11.2627 464.643C11.1791 462.769 11.0951 460.894 11.0107 459.02C10.7501 453.237 10.4938 447.454 10.2449 441.67C10.1979 440.58 10.1504 439.49 10.1029 438.4C9.73204 429.795 9.55675 421.242 9.57248 412.609C9.57349 411.714 9.57349 411.714 9.57451 410.801C9.60443 393.406 10.5503 376.69 12.1076 359.545C12.3365 357.016 12.5516 354.483 12.7629 351.949C14.8763 326.755 18.4195 302.431 23.6709 278.815C23.9409 277.595 24.2063 276.371 24.4714 275.147C25.7447 269.29 27.1854 263.603 28.6794 257.927C28.7611 257.616 28.8427 257.305 28.9269 256.985C29.7702 253.78 30.6176 250.578 31.4767 247.387C33.0877 241.366 34.5616 235.263 35.9622 229.069C36.047 228.697 36.1317 228.326 36.219 227.944C36.4599 226.885 36.6973 225.824 36.9336 224.761C37.0057 224.446 37.0779 224.13 37.1522 223.804C37.5315 222.073 37.7843 220.664 37.6442 218.8C37.3657 217.619 37.3657 217.619 36.9546 216.476C36.7344 215.827 36.7344 215.826 36.5098 215.164C36.3513 214.71 36.1928 214.256 36.0295 213.789C35.8684 213.32 35.7073 212.851 35.5413 212.368C34.5916 209.624 33.6162 206.934 32.55 204.338C32.1102 203.253 31.6859 202.16 31.2675 201.048C29.7296 196.964 28.1421 193.026 26.3923 189.238C25.6503 187.61 25.0742 186.224 24.7268 184.158C24.5492 184.158 24.3716 184.158 24.1886 184.158C23.7828 183.218 23.7828 183.218 23.3476 181.993C23.2026 181.591 23.0576 181.189 22.9082 180.775C22.5739 179.704 22.5739 179.704 22.5739 178.714C22.3963 178.714 22.2187 178.714 22.0357 178.714C21.6339 177.71 21.6339 177.71 21.1664 176.307C20.9945 175.796 20.8226 175.285 20.6455 174.758C20.466 174.216 20.2864 173.674 20.1015 173.116C19.7501 172.066 19.3987 171.016 19.0471 169.966C18.8735 169.446 18.7 168.926 18.5212 168.391C17.3709 164.967 16.1859 161.584 14.9978 158.205C14.7697 157.434 14.7697 157.434 14.7697 156.444C14.5921 156.444 14.4145 156.444 14.2315 156.444C14.1149 155.995 13.9984 155.546 13.8783 155.083C13.4997 153.742 13.1156 152.68 12.6168 151.495C12.039 149.766 11.4894 148.01 10.9517 146.237C10.8091 145.771 10.6665 145.306 10.5196 144.826C10.1948 143.577 10.1948 143.577 10.1948 142.092C10.0172 142.092 9.83958 142.092 9.65658 142.092C7.97985 134.799 6.3738 127.452 4.89983 120.012C4.55829 118.332 4.55829 118.332 4.11246 116.76C3.79224 115.576 3.59554 114.609 3.4502 113.327C3.25875 111.51 3.25875 111.51 2.89516 110.389C2.53687 108.93 2.62674 107.541 2.65968 105.966C2.48207 105.966 2.30446 105.966 2.12146 105.966C2.09197 105.566 2.06249 105.166 2.03211 104.754C1.9681 103.96 1.9681 103.96 1.90281 103.151C1.86222 102.629 1.82163 102.106 1.77982 101.568C1.62599 100.009 1.62599 100.009 1.16065 98.7357C0.731451 97.416 0.70063 96.8023 0.759084 95.2947C0.823783 93.5344 0.665601 92.6777 0.23768 91.1191C0.19458 90.0559 0.19458 90.0559 0.220861 88.954C0.240504 87.5746 0.217903 86.4591 0.086305 85.0877C-0.0314313 83.6958 -0.0314313 83.6958 0.103124 82.2421C0.282914 80.6921 0.282914 80.6921 0.103124 78.9944C-0.0359594 77.204 0.0672779 76.0625 0.23768 74.293C0.279236 73.6344 0.317582 72.9751 0.353314 72.3154C0.617317 67.4517 0.997892 62.7358 1.58324 57.9618C1.64707 57.4317 1.7109 56.9015 1.77666 56.3553C2.18999 53.1125 2.74619 50.1252 3.46702 47.0743C3.61186 46.4274 3.75657 45.7805 3.90117 45.1334C4.93304 40.6072 6.14137 36.444 7.54521 32.2732C8.88053 28.2679 10.0448 24.1227 11.2082 19.9422C12.2459 16.2155 13.3064 12.517 14.3997 8.84438C14.5301 8.40587 14.6605 7.96737 14.7949 7.51558ZM87.4298 246.018C87.2522 246.508 87.0746 246.998 86.8916 247.503C86.8028 247.503 86.714 247.503 86.6225 247.503C86.6124 247.849 86.6024 248.195 86.592 248.551C86.5743 249.001 86.5566 249.452 86.5384 249.916C86.515 250.587 86.515 250.587 86.4911 251.273C86.3534 252.452 86.3534 252.452 85.546 253.442C85.4765 254.448 85.4084 255.456 85.361 256.467C85.2515 257.683 84.9538 258.069 84.4696 258.885C84.4252 259.375 84.3808 259.865 84.335 260.37C84.1848 262.028 84.0203 262.234 83.3931 263.339C83.2973 264.162 83.2069 264.987 83.124 265.814C82.8576 266.059 82.8576 266.059 82.5858 266.309C82.3523 267.224 82.3523 267.224 82.1653 268.288C81.8027 270.223 81.8027 270.223 81.5094 270.763C81.4984 271.587 81.4979 272.413 81.5094 273.237C81.2429 273.237 80.9765 273.237 80.702 273.237C80.5966 273.778 80.4911 274.319 80.3824 274.876C79.8425 277.524 79.1942 280.074 78.5491 282.64C78.3245 283.547 78.1002 284.454 77.8763 285.362C77.7643 285.814 77.6522 286.266 77.5368 286.732C77.3213 287.606 77.1075 288.481 76.8956 289.358C76.2416 292.048 75.5499 294.697 74.832 297.332C74.7419 297.663 74.6518 297.995 74.559 298.336C74.0727 300.118 73.5796 301.893 73.0786 303.661C72.9779 304.02 72.8773 304.38 72.7735 304.75C72.5795 305.442 72.3833 306.132 72.1847 306.82C71.9534 307.65 71.7503 308.506 71.5522 309.364C71.641 309.854 71.7298 310.344 71.8213 310.848C71.8879 310.542 71.9545 310.236 72.0232 309.921C72.3596 308.869 72.3596 308.869 72.8538 308.421C73.5251 307.796 73.946 307.062 74.4757 306.081C74.6701 305.723 74.8645 305.364 75.0649 304.995C75.3659 304.432 75.3659 304.432 75.673 303.858C75.8706 303.495 76.0681 303.131 76.2717 302.756C77.386 300.691 78.4538 298.576 79.4865 296.371C79.9872 295.311 80.5132 294.299 81.0384 293.28C86.21 282.699 89.1966 269.98 88.835 255.657C88.6749 252.369 88.1924 249.183 87.6989 246.018C87.6101 246.018 87.5213 246.018 87.4298 246.018Z" fill="#FFC03B"/>
</g>
<defs>
<clipPath id="clip0_4419_14294">
<rect width="700" height="542.487" fill="white"/>
</clipPath>
</defs>
</svg>
